<svg width="100" height="30" viewBox="0 0 100 30" fill="none" xmlns="http://www.w3.org/2000/svg">
<path d="M1.97869 20L2.91335 17.3054H6.89062L7.82031 20H9.45099L5.78693 9.81818H4.01207L0.348011 20H1.97869ZM3.3608 16.0128L4.86222 11.6676H4.94176L6.44318 16.0128H3.3608ZM10.802 20H12.2885V16.9474H13.253L15.5549 20H17.3993L14.4064 16.0774L17.3645 12.3636H15.525L13.0044 15.5653H12.2885V12.3636H10.802V20ZM18.554 20H20.0405V16.9474H21.005L23.3068 20H25.1513L22.1584 16.0774L25.1165 12.3636H23.277L20.7564 15.5653H20.0405V12.3636H18.554V20ZM28.5282 20.169C29.791 20.169 30.502 19.5277 30.7853 18.956H30.845V20H32.2967V14.929C32.2967 12.7067 30.5467 12.2642 29.3336 12.2642C27.9515 12.2642 26.6788 12.821 26.1816 14.2131L27.5787 14.5312C27.7974 13.9893 28.3542 13.4673 29.3535 13.4673C30.313 13.4673 30.8052 13.9695 30.8052 14.8345V14.8693C30.8052 15.4112 30.2484 15.4013 28.8762 15.5604C27.4295 15.7294 25.948 16.1072 25.948 17.8423C25.948 19.3438 27.0765 20.169 28.5282 20.169ZM28.8514 18.9759C28.0112 18.9759 27.4047 18.598 27.4047 17.8622C27.4047 17.0668 28.1106 16.7834 28.9707 16.669C29.4529 16.6044 30.5964 16.4751 30.8102 16.2614V17.2457C30.8102 18.1506 30.0893 18.9759 28.8514 18.9759ZM34.9428 22.8636C36.1708 22.8636 36.9464 22.2223 37.3888 21.0192L40.5458 12.3786L38.94 12.3636L37.006 18.2898H36.9265L34.9925 12.3636H33.4016L36.1957 20.0994L36.0117 20.6065C35.6339 21.6207 35.1019 21.7053 34.2866 21.4815L33.9286 22.6996C34.1076 22.7791 34.4954 22.8636 34.9428 22.8636ZM43.4032 12.3636H41.9466V20H43.4032V16.8281H46.7093V20H48.161V12.3636H46.7093V15.5405H43.4032V12.3636ZM49.2026 13.6463H51.7033V20H53.155V13.6463H55.6458V12.3636H49.2026V13.6463Z" fill="white"/>
<rect x="70" width="30" height="30" rx="6" fill="#313131"/>
<path fill-rule="evenodd" clip-rule="evenodd" d="M86.4303 16.9675C87.7917 16.4052 88.7498 15.0645 88.7498 13.5C88.7498 11.4289 87.0708 9.75 84.9998 9.75C82.9287 9.75 81.2498 11.4289 81.2498 13.5C81.2498 15.0645 82.2078 16.4052 83.5693 16.9675C82.175 17.1998 80.8924 17.7657 79.8083 18.5802L81.1899 20.419C82.2512 19.6217 83.5687 19.1496 84.9999 19.1496C86.431 19.1496 87.7485 19.6217 88.8098 20.419L90.1914 18.5802C89.1073 17.7657 87.8246 17.1997 86.4303 16.9675Z" fill="white"/>
</svg>
